<svg xmlns="http://www.w3.org/2000/svg" viewBox="0 0 312.06 75.89"><defs><style>.cls-1{fill:#acdee5;}.cls-2{fill:#4a4a6c;}.cls-3{fill:#34244f;}.cls-4{fill:#222226;}</style></defs><g id="Layer_2" data-name="Layer 2"><g id="Layer_1-2" data-name="Layer 1"><circle class="cls-1" cx="37.95" cy="37.95" r="37.95"/><path class="cls-2" d="M29,53.12a2.25,2.25,0,0,1-2.25-2.25V25A2.26,2.26,0,0,1,29,22.77H46.91A2.26,2.26,0,0,1,49.17,25v7.58L32.87,44.93v2.48a.78.78,0,0,0,.78.78h8.6a.77.77,0,0,0,.77-.78v-3h6.15v6.49a2.26,2.26,0,0,1-2.26,2.25ZM33.65,27.7a.78.78,0,0,0-.78.78v9.83L43,30.63V28.48a.77.77,0,0,0-.77-.78Z"/><path class="cls-3" d="M46.91,23.13a1.9,1.9,0,0,1,1.9,1.9v7.4l-2.6,2h0L32.51,44.75v2.66a1.14,1.14,0,0,0,1.14,1.14h8.6a1.13,1.13,0,0,0,1.13-1.14V44.74h5.43v6.13a1.9,1.9,0,0,1-1.9,1.89H29a1.89,1.89,0,0,1-1.89-1.89V25A1.9,1.9,0,0,1,29,23.13H46.91M32.51,39l6.73-5.09,4.14-3.13V28.48a1.13,1.13,0,0,0-1.13-1.14h-8.6a1.14,1.14,0,0,0-1.14,1.14V39m14.4-16.62H29A2.62,2.62,0,0,0,26.36,25V50.87A2.63,2.63,0,0,0,29,53.49H46.91a2.63,2.63,0,0,0,2.62-2.62V44H42.66v3.39a.41.41,0,0,1-.41.42h-8.6a.42.42,0,0,1-.42-.42v-2.3l13.22-10h0l.19-.15,2.6-2,.29-.22V25a2.62,2.62,0,0,0-2.62-2.62ZM33.23,37.58v-9.1a.41.41,0,0,1,.42-.41h8.6a.41.41,0,0,1,.41.41v2L38.8,33.37l-5.57,4.21Z"/><path class="cls-4" d="M109.9,25.43V31H96.76v4.3h11v5.23h-11v4.31H109.9v5.59H90.73v-25Z"/><path class="cls-4" d="M151.16,50.46h-6.07V37.69l-6,12.77h-6.73l-6-12.77V50.46h-6v-25H127l8.72,18.37,8.69-18.37h6.73Z"/><path class="cls-4" d="M184,43.17c0,4.09-2.62,7.29-9.46,7.29H162.25v-25h10.86c7.25,0,9.53,2.87,9.53,6.89a6.41,6.41,0,0,1-2.36,4.78A6.53,6.53,0,0,1,184,43.17ZM176.9,33.09c0-1.69-1.11-2.5-3.42-2.5h-5.19v5.22h5.19C176.09,35.81,176.9,35,176.9,33.09Zm-3,7.32h-5.59v4.86h5.59q3.65,0,3.64-2.43C177.52,41,176.27,40.41,173.88,40.41Z"/><path class="cls-4" d="M214.81,34.82a9,9,0,0,1-4.45,8.1l5.15,7.54H208l-3.75-6.22h-4.42v6.22h-6v-25h12.1C211,25.43,214.81,29.37,214.81,34.82Zm-15-3.79v7.62H205a3.81,3.81,0,0,0,0-7.62Z"/><path class="cls-4" d="M244,46.56H231.93l-1.66,3.9h-6.4l10.71-25h6.73l10.75,25h-6.44Zm-2.1-4.93L238,32.28l-4,9.35Z"/><path class="cls-4" d="M283.31,44.39a13.41,13.41,0,0,1-11.7,6.51c-7.84,0-13.54-5.74-13.54-13.14,0-6.95,5.7-12.77,13.54-12.77a13.3,13.3,0,0,1,11.78,6.26l-5.12,3a7.55,7.55,0,0,0-14.09,3.53,7.37,7.37,0,0,0,7.43,7.47,7.28,7.28,0,0,0,6.59-3.79Z"/><path class="cls-4" d="M312.06,25.43V31H298.92v4.3h11v5.23h-11v4.31h13.14v5.59H292.89v-25Z"/></g></g></svg>